<?xml version="1.0" standalone="no"?>
<!DOCTYPE svg PUBLIC "-//W3C//DTD SVG 20010904//EN"
 "http://www.w3.org/TR/2001/REC-SVG-20010904/DTD/svg10.dtd">
<svg version="1.0" xmlns="http://www.w3.org/2000/svg"
 width="260.000000pt" height="260.000000pt" viewBox="0 0 260.000000 260.000000"
 preserveAspectRatio="xMidYMid meet">
<metadata>
Created by potrace 1.14, written by Peter Selinger 2001-2017
</metadata>
<g transform="translate(0.000000,260.000000) scale(0.100000,-0.100000)"
fill="#000000" stroke="none">
<path d="M1205 2428 c-209 -15 -414 -91 -586 -219 -87 -64 -224 -208 -279
-292 l-45 -68 -49 3 -50 3 -48 -101 c-53 -113 -80 -204 -103 -339 l-14 -90 5
75 c10 146 58 325 121 455 13 28 17 41 9 30 -9 -11 -19 -25 -24 -30 -17 -20
-90 -211 -105 -275 -42 -170 -44 -365 -6 -552 102 -510 517 -917 1034 -1013
140 -26 426 -17 558 18 480 128 851 517 946 995 38 187 36 382 -6 552 -15 64
-88 255 -105 275 -5 5 -15 19 -23 30 -8 11 1 -14 20 -56 59 -131 117 -373 114
-474 -1 -16 -8 11 -15 60 -21 132 -49 225 -102 339 l-48 101 -50 -3 -49 -3
-45 68 c-55 84 -192 228 -279 292 -223 165 -488 240 -776 219z m344 -68 c292
-71 524 -240 682 -495 46 -74 97 -192 113 -257 l6 -28 -250 0 -250 0 -1 38
c-1 58 -8 83 -35 130 -35 59 -92 115 -156 151 -72 42 -82 39 -17 -5 130 -86
199 -223 144 -284 -35 -38 -74 -53 -132 -48 -64 6 -103 37 -123 99 -19 56
-104 129 -151 129 -5 0 -9 -77 -9 -185 l0 -185 23 0 c40 0 199 -48 263 -80
217 -107 264 -369 95 -538 -31 -32 -79 -70 -108 -85 -56 -30 -188 -67 -238
-67 l-32 0 -7 -84 c-7 -103 -11 -113 -42 -120 -67 -17 -94 20 -94 131 0 42 -4
65 -12 67 -7 2 -51 10 -98 19 -211 41 -380 192 -383 343 0 38 5 51 31 77 27
27 39 31 94 34 88 5 106 -7 153 -104 55 -112 102 -159 187 -184 l28 -8 0 208
0 207 -70 17 c-128 31 -226 74 -284 128 -75 68 -100 129 -100 239 l0 85 -14
-62 -14 -63 -249 0 -249 0 6 28 c16 65 67 183 113 257 175 282 448 463 777
515 92 14 306 4 403 -20z m-87 -650 c34 -28 74 -110 60 -124 -3 -3 -25 -6 -49
-6 -37 0 -45 4 -53 26 -12 30 -13 134 -2 134 4 0 24 -13 44 -30z"/>
<path d="M1355 2115 c4 -11 10 -48 13 -82 3 -51 8 -63 21 -63 27 0 11 115 -19
144 -22 20 -22 20 -15 1z"/>
<path d="M1168 1781 c-99 -39 -136 -90 -125 -173 8 -60 51 -99 148 -133 l39
-14 -1 107 c-1 101 -1 105 -12 62 -12 -44 -13 -45 -57 -48 -33 -3 -47 1 -57
14 -16 22 -16 64 0 84 19 25 71 58 100 65 20 5 27 13 27 31 0 28 -1 28 -62 5z"/>
<path d="M1370 1006 l0 -194 38 10 c86 24 164 86 178 144 12 49 -2 114 -32
145 -29 30 -106 71 -156 83 l-28 6 0 -194z"/>
</g>
</svg>
